ISO-10303-21;
HEADER;
/* Generated by software containing ST-Developer
 * from STEP Tools, Inc. (www.steptools.com) 
 */

FILE_DESCRIPTION(
/* description */ (''),
/* implementation_level */ '2;1');

FILE_NAME(
/* name */ '',
/* time_stamp */ '2026-06-29T13:25:17+03:00',
/* author */ ('aidrisov'),
/* organization */ (''),
/* preprocessor_version */ 'ST-DEVELOPER v20.1',
/* originating_system */ 'Autodesk Inventor 2026',
/* authorisation */ '');

FILE_SCHEMA (('AUTOMOTIVE_DESIGN { 1 0 10303 214 3 1 1 }'));
ENDSEC;

DATA;
#10=MECHANICAL_DESIGN_GEOMETRIC_PRESENTATION_REPRESENTATION('',(#13),#362);
#11=SHAPE_REPRESENTATION_RELATIONSHIP('SRR','None',#369,#12);
#12=ADVANCED_BREP_SHAPE_REPRESENTATION('',(#14),#361);
#13=STYLED_ITEM('',(#378),#14);
#14=MANIFOLD_SOLID_BREP('\X2\04220432043504400434043E0435\X0\ \X2\04420435043B043E\X0\1',
#157);
#15=LINE('',#309,#17);
#16=LINE('',#355,#18);
#17=VECTOR('',#230,88.7524074745198);
#18=VECTOR('',#255,87.3843269012171);
#19=CONICAL_SURFACE('',#185,88.7524074745198,1.22173047639603);
#20=CONICAL_SURFACE('',#198,87.3843269012171,1.22173047639603);
#21=(
BOUNDED_SURFACE()
B_SPLINE_SURFACE(2,2,((#270,#271,#272,#273,#274,#275,#276,#277,#278),(#279,
#280,#281,#282,#283,#284,#285,#286,#287),(#288,#289,#290,#291,#292,#293,
#294,#295,#296)),.UNSPECIFIED.,.F.,.T.,.F.)
B_SPLINE_SURFACE_WITH_KNOTS((3,3),(3,2,2,2,3),(0.445064406713207,0.748327172280567),
(-3.14159265358979,-1.5707963267949,0.,1.5707963267949,3.14159265358979),
 .UNSPECIFIED.)
GEOMETRIC_REPRESENTATION_ITEM()
RATIONAL_B_SPLINE_SURFACE(((1.,0.707106781186548,1.,0.707106781186548,1.,
0.707106781186548,1.,0.707106781186548,1.),(0.988525971485421,0.698993417816361,
0.988525971485421,0.698993417816361,0.988525971485421,0.698993417816361,
0.988525971485421,0.698993417816361,0.988525971485421),(1.,0.707106781186548,
1.,0.707106781186548,1.,0.707106781186548,1.,0.707106781186548,1.)))
REPRESENTATION_ITEM('')
SURFACE()
);
#22=(
BOUNDED_SURFACE()
B_SPLINE_SURFACE(2,2,((#317,#318,#319,#320,#321,#322,#323,#324,#325),(#326,
#327,#328,#329,#330,#331,#332,#333,#334),(#335,#336,#337,#338,#339,#340,
#341,#342,#343)),.UNSPECIFIED.,.F.,.T.,.F.)
B_SPLINE_SURFACE_WITH_KNOTS((3,3),(3,2,2,2,3),(0.445064406713208,0.748327172280555),
(-3.14159265358979,-1.5707963267949,0.,1.5707963267949,3.14159265358979),
 .UNSPECIFIED.)
GEOMETRIC_REPRESENTATION_ITEM()
RATIONAL_B_SPLINE_SURFACE(((1.,0.707106781186548,1.,0.707106781186548,1.,
0.707106781186548,1.,0.707106781186548,1.),(0.988525971485433,0.69899341781637,
0.988525971485433,0.69899341781637,0.988525971485433,0.69899341781637,0.988525971485433,
0.69899341781637,0.988525971485433),(1.,0.707106781186548,1.,0.707106781186548,
1.,0.707106781186548,1.,0.707106781186548,1.)))
REPRESENTATION_ITEM('')
SURFACE()
);
#23=TOROIDAL_SURFACE('',#176,73.1729444680498,4.00000000000001);
#24=TOROIDAL_SURFACE('',#181,91.4885686211252,8.);
#25=TOROIDAL_SURFACE('',#189,70.,4.);
#26=TOROIDAL_SURFACE('',#194,91.4885686211252,12.);
#27=TOROIDAL_SURFACE('',#200,102.793855307925,2.);
#28=FACE_OUTER_BOUND('',#39,.T.);
#29=FACE_OUTER_BOUND('',#40,.T.);
#30=FACE_OUTER_BOUND('',#41,.T.);
#31=FACE_OUTER_BOUND('',#42,.T.);
#32=FACE_OUTER_BOUND('',#43,.T.);
#33=FACE_OUTER_BOUND('',#44,.T.);
#34=FACE_OUTER_BOUND('',#45,.T.);
#35=FACE_OUTER_BOUND('',#46,.T.);
#36=FACE_OUTER_BOUND('',#47,.T.);
#37=FACE_OUTER_BOUND('',#48,.T.);
#38=FACE_OUTER_BOUND('',#49,.T.);
#39=EDGE_LOOP('',(#102));
#40=EDGE_LOOP('',(#103,#104,#105,#106));
#41=EDGE_LOOP('',(#107,#108,#109,#110));
#42=EDGE_LOOP('',(#111,#112,#113,#114,#115));
#43=EDGE_LOOP('',(#116,#117,#118,#119,#120));
#44=EDGE_LOOP('',(#121));
#45=EDGE_LOOP('',(#122,#123,#124,#125));
#46=EDGE_LOOP('',(#126,#127,#128,#129));
#47=EDGE_LOOP('',(#130,#131,#132,#133,#134));
#48=EDGE_LOOP('',(#135,#136,#137,#138,#139));
#49=EDGE_LOOP('',(#140,#141,#142,#143));
#50=CIRCLE('',#175,70.);
#51=CIRCLE('',#177,4.00000000000001);
#52=CIRCLE('',#178,76.1042569032216);
#53=CIRCLE('',#179,48.0908153700972);
#54=CIRCLE('',#180,84.2679051079508);
#55=CIRCLE('',#182,8.);
#56=CIRCLE('',#183,88.7524074745198);
#57=CIRCLE('',#184,88.7524074745198);
#58=CIRCLE('',#186,103.477895594576);
#59=CIRCLE('',#188,70.);
#60=CIRCLE('',#190,73.1729444680502);
#61=CIRCLE('',#191,4.);
#62=CIRCLE('',#192,80.6575733513637);
#63=CIRCLE('',#193,44.0908153700972);
#64=CIRCLE('',#195,87.3843269012171);
#65=CIRCLE('',#196,87.3843269012171);
#66=CIRCLE('',#197,12.);
#67=CIRCLE('',#199,102.109812129067);
#68=CIRCLE('',#201,2.);
#69=VERTEX_POINT('',#264);
#70=VERTEX_POINT('',#267);
#71=VERTEX_POINT('',#297);
#72=VERTEX_POINT('',#301);
#73=VERTEX_POINT('',#303);
#74=VERTEX_POINT('',#307);
#75=VERTEX_POINT('',#311);
#76=VERTEX_POINT('',#314);
#77=VERTEX_POINT('',#344);
#78=VERTEX_POINT('',#348);
#79=VERTEX_POINT('',#349);
#80=VERTEX_POINT('',#354);
#81=EDGE_CURVE('',#69,#69,#50,.F.);
#82=EDGE_CURVE('',#69,#70,#51,.T.);
#83=EDGE_CURVE('',#70,#70,#52,.T.);
#84=EDGE_CURVE('',#70,#71,#53,.T.);
#85=EDGE_CURVE('',#71,#71,#54,.T.);
#86=EDGE_CURVE('',#71,#72,#55,.T.);
#87=EDGE_CURVE('',#72,#73,#56,.T.);
#88=EDGE_CURVE('',#73,#72,#57,.T.);
#89=EDGE_CURVE('',#74,#74,#58,.T.);
#90=EDGE_CURVE('',#74,#73,#15,.T.);
#91=EDGE_CURVE('',#75,#75,#59,.T.);
#92=EDGE_CURVE('',#76,#76,#60,.F.);
#93=EDGE_CURVE('',#76,#75,#61,.T.);
#94=EDGE_CURVE('',#77,#77,#62,.T.);
#95=EDGE_CURVE('',#77,#76,#63,.T.);
#96=EDGE_CURVE('',#78,#79,#64,.T.);
#97=EDGE_CURVE('',#79,#78,#65,.T.);
#98=EDGE_CURVE('',#79,#77,#66,.T.);
#99=EDGE_CURVE('',#78,#80,#16,.T.);
#100=EDGE_CURVE('',#80,#80,#67,.T.);
#101=EDGE_CURVE('',#80,#74,#68,.T.);
#102=ORIENTED_EDGE('',*,*,#81,.T.);
#103=ORIENTED_EDGE('',*,*,#81,.F.);
#104=ORIENTED_EDGE('',*,*,#82,.T.);
#105=ORIENTED_EDGE('',*,*,#83,.T.);
#106=ORIENTED_EDGE('',*,*,#82,.F.);
#107=ORIENTED_EDGE('',*,*,#83,.F.);
#108=ORIENTED_EDGE('',*,*,#84,.T.);
#109=ORIENTED_EDGE('',*,*,#85,.T.);
#110=ORIENTED_EDGE('',*,*,#84,.F.);
#111=ORIENTED_EDGE('',*,*,#85,.F.);
#112=ORIENTED_EDGE('',*,*,#86,.T.);
#113=ORIENTED_EDGE('',*,*,#87,.T.);
#114=ORIENTED_EDGE('',*,*,#88,.T.);
#115=ORIENTED_EDGE('',*,*,#86,.F.);
#116=ORIENTED_EDGE('',*,*,#89,.T.);
#117=ORIENTED_EDGE('',*,*,#90,.T.);
#118=ORIENTED_EDGE('',*,*,#87,.F.);
#119=ORIENTED_EDGE('',*,*,#88,.F.);
#120=ORIENTED_EDGE('',*,*,#90,.F.);
#121=ORIENTED_EDGE('',*,*,#91,.F.);
#122=ORIENTED_EDGE('',*,*,#92,.F.);
#123=ORIENTED_EDGE('',*,*,#93,.T.);
#124=ORIENTED_EDGE('',*,*,#91,.T.);
#125=ORIENTED_EDGE('',*,*,#93,.F.);
#126=ORIENTED_EDGE('',*,*,#94,.F.);
#127=ORIENTED_EDGE('',*,*,#95,.T.);
#128=ORIENTED_EDGE('',*,*,#92,.T.);
#129=ORIENTED_EDGE('',*,*,#95,.F.);
#130=ORIENTED_EDGE('',*,*,#96,.F.);
#131=ORIENTED_EDGE('',*,*,#97,.F.);
#132=ORIENTED_EDGE('',*,*,#98,.T.);
#133=ORIENTED_EDGE('',*,*,#94,.T.);
#134=ORIENTED_EDGE('',*,*,#98,.F.);
#135=ORIENTED_EDGE('',*,*,#96,.T.);
#136=ORIENTED_EDGE('',*,*,#97,.T.);
#137=ORIENTED_EDGE('',*,*,#99,.T.);
#138=ORIENTED_EDGE('',*,*,#100,.T.);
#139=ORIENTED_EDGE('',*,*,#99,.F.);
#140=ORIENTED_EDGE('',*,*,#100,.F.);
#141=ORIENTED_EDGE('',*,*,#101,.T.);
#142=ORIENTED_EDGE('',*,*,#89,.F.);
#143=ORIENTED_EDGE('',*,*,#101,.F.);
#144=PLANE('',#174);
#145=PLANE('',#187);
#146=ADVANCED_FACE('',(#28),#144,.T.);
#147=ADVANCED_FACE('',(#29),#23,.T.);
#148=ADVANCED_FACE('',(#30),#21,.F.);
#149=ADVANCED_FACE('',(#31),#24,.F.);
#150=ADVANCED_FACE('',(#32),#19,.T.);
#151=ADVANCED_FACE('',(#33),#145,.F.);
#152=ADVANCED_FACE('',(#34),#25,.T.);
#153=ADVANCED_FACE('',(#35),#22,.T.);
#154=ADVANCED_FACE('',(#36),#26,.T.);
#155=ADVANCED_FACE('',(#37),#20,.F.);
#156=ADVANCED_FACE('',(#38),#27,.T.);
#157=CLOSED_SHELL('',(#146,#147,#148,#149,#150,#151,#152,#153,#154,#155,
#156));
#158=DERIVED_UNIT_ELEMENT(#161,1.);
#159=DERIVED_UNIT_ELEMENT(#364,-3.);
#160=DIMENSIONAL_EXPONENTS(0.,1.,0.,0.,0.,0.,0.);
#161=(
CONVERSION_BASED_UNIT('gram',#163)
MASS_UNIT()
NAMED_UNIT(#160)
);
#162=(
MASS_UNIT()
NAMED_UNIT(*)
SI_UNIT(.KILO.,.GRAM.)
);
#163=MASS_MEASURE_WITH_UNIT(MASS_MEASURE(0.001),#162);
#164=DERIVED_UNIT((#158,#159));
#165=MEASURE_REPRESENTATION_ITEM('density measure',
POSITIVE_RATIO_MEASURE(1.),#164);
#166=PROPERTY_DEFINITION_REPRESENTATION(#171,#168);
#167=PROPERTY_DEFINITION_REPRESENTATION(#172,#169);
#168=REPRESENTATION('material name',(#170),#361);
#169=REPRESENTATION('density',(#165),#361);
#170=DESCRIPTIVE_REPRESENTATION_ITEM('\X2\04220438043F043E0432044B0435\X0\',
'\X2\04220438043F043E0432044B0435\X0\');
#171=PROPERTY_DEFINITION('material property','material name',#371);
#172=PROPERTY_DEFINITION('material property','density of part',#371);
#173=AXIS2_PLACEMENT_3D('',#262,#202,#203);
#174=AXIS2_PLACEMENT_3D('',#263,#204,#205);
#175=AXIS2_PLACEMENT_3D('',#265,#206,#207);
#176=AXIS2_PLACEMENT_3D('',#266,#208,#209);
#177=AXIS2_PLACEMENT_3D('',#268,#210,#211);
#178=AXIS2_PLACEMENT_3D('',#269,#212,#213);
#179=AXIS2_PLACEMENT_3D('',#298,#214,#215);
#180=AXIS2_PLACEMENT_3D('',#299,#216,#217);
#181=AXIS2_PLACEMENT_3D('',#300,#218,#219);
#182=AXIS2_PLACEMENT_3D('',#302,#220,#221);
#183=AXIS2_PLACEMENT_3D('',#304,#222,#223);
#184=AXIS2_PLACEMENT_3D('',#305,#224,#225);
#185=AXIS2_PLACEMENT_3D('',#306,#226,#227);
#186=AXIS2_PLACEMENT_3D('',#308,#228,#229);
#187=AXIS2_PLACEMENT_3D('',#310,#231,#232);
#188=AXIS2_PLACEMENT_3D('',#312,#233,#234);
#189=AXIS2_PLACEMENT_3D('',#313,#235,#236);
#190=AXIS2_PLACEMENT_3D('',#315,#237,#238);
#191=AXIS2_PLACEMENT_3D('',#316,#239,#240);
#192=AXIS2_PLACEMENT_3D('',#345,#241,#242);
#193=AXIS2_PLACEMENT_3D('',#346,#243,#244);
#194=AXIS2_PLACEMENT_3D('',#347,#245,#246);
#195=AXIS2_PLACEMENT_3D('',#350,#247,#248);
#196=AXIS2_PLACEMENT_3D('',#351,#249,#250);
#197=AXIS2_PLACEMENT_3D('',#352,#251,#252);
#198=AXIS2_PLACEMENT_3D('',#353,#253,#254);
#199=AXIS2_PLACEMENT_3D('',#356,#256,#257);
#200=AXIS2_PLACEMENT_3D('',#357,#258,#259);
#201=AXIS2_PLACEMENT_3D('',#358,#260,#261);
#202=DIRECTION('axis',(0.,0.,1.));
#203=DIRECTION('refdir',(1.,0.,0.));
#204=DIRECTION('center_axis',(0.,-1.,0.));
#205=DIRECTION('ref_axis',(0.,0.,-1.));
#206=DIRECTION('center_axis',(0.,1.,0.));
#207=DIRECTION('ref_axis',(0.,0.,1.));
#208=DIRECTION('center_axis',(0.,-1.,0.));
#209=DIRECTION('ref_axis',(0.,0.,-1.));
#210=DIRECTION('center_axis',(-1.,0.,-1.22464679914735E-16));
#211=DIRECTION('ref_axis',(-1.22464679914735E-16,0.,1.));
#212=DIRECTION('center_axis',(0.,-1.,0.));
#213=DIRECTION('ref_axis',(0.,0.,-1.));
#214=DIRECTION('center_axis',(-1.,0.,-1.22464679914735E-16));
#215=DIRECTION('ref_axis',(-1.22464679914735E-16,0.,1.));
#216=DIRECTION('center_axis',(0.,-1.,0.));
#217=DIRECTION('ref_axis',(0.,0.,-1.));
#218=DIRECTION('center_axis',(0.,-1.,0.));
#219=DIRECTION('ref_axis',(0.,0.,-1.));
#220=DIRECTION('center_axis',(1.,0.,1.22464679914735E-16));
#221=DIRECTION('ref_axis',(-1.22464679914735E-16,0.,1.));
#222=DIRECTION('center_axis',(0.,-1.,0.));
#223=DIRECTION('ref_axis',(0.,0.,-1.));
#224=DIRECTION('center_axis',(0.,-1.,0.));
#225=DIRECTION('ref_axis',(0.,0.,-1.));
#226=DIRECTION('center_axis',(0.,1.,0.));
#227=DIRECTION('ref_axis',(0.,0.,1.));
#228=DIRECTION('center_axis',(0.,-1.,0.));
#229=DIRECTION('ref_axis',(0.,0.,-1.));
#230=DIRECTION('',(1.15079156022785E-16,-0.342020143325669,0.939692620785908));
#231=DIRECTION('center_axis',(0.,-1.,0.));
#232=DIRECTION('ref_axis',(0.,0.,-1.));
#233=DIRECTION('center_axis',(0.,-1.,0.));
#234=DIRECTION('ref_axis',(0.,0.,-1.));
#235=DIRECTION('center_axis',(0.,-1.,0.));
#236=DIRECTION('ref_axis',(0.,0.,-1.));
#237=DIRECTION('center_axis',(0.,1.,0.));
#238=DIRECTION('ref_axis',(0.,0.,1.));
#239=DIRECTION('center_axis',(-1.,0.,-1.22464679914735E-16));
#240=DIRECTION('ref_axis',(-1.22464679914735E-16,0.,1.));
#241=DIRECTION('center_axis',(0.,-1.,0.));
#242=DIRECTION('ref_axis',(0.,0.,-1.));
#243=DIRECTION('center_axis',(1.,0.,1.22464679914735E-16));
#244=DIRECTION('ref_axis',(-1.22464679914735E-16,0.,1.));
#245=DIRECTION('center_axis',(0.,-1.,0.));
#246=DIRECTION('ref_axis',(0.,0.,-1.));
#247=DIRECTION('center_axis',(0.,-1.,0.));
#248=DIRECTION('ref_axis',(0.,0.,-1.));
#249=DIRECTION('center_axis',(0.,-1.,0.));
#250=DIRECTION('ref_axis',(0.,0.,-1.));
#251=DIRECTION('center_axis',(-1.,0.,-1.22464679914735E-16));
#252=DIRECTION('ref_axis',(-1.22464679914735E-16,0.,1.));
#253=DIRECTION('center_axis',(0.,1.,0.));
#254=DIRECTION('ref_axis',(0.,0.,1.));
#255=DIRECTION('',(-1.15079156022785E-16,0.342020143325669,-0.939692620785908));
#256=DIRECTION('center_axis',(0.,1.,0.));
#257=DIRECTION('ref_axis',(0.,0.,1.));
#258=DIRECTION('center_axis',(0.,1.,0.));
#259=DIRECTION('ref_axis',(0.,0.,1.));
#260=DIRECTION('center_axis',(-1.,0.,1.22464679914735E-16));
#261=DIRECTION('ref_axis',(-1.22464679914735E-16,0.,-1.));
#262=CARTESIAN_POINT('',(0.,0.,0.));
#263=CARTESIAN_POINT('Origin',(0.,-3.,0.));
#264=CARTESIAN_POINT('',(0.,-3.,70.));
#265=CARTESIAN_POINT('Origin',(0.,-3.,0.));
#266=CARTESIAN_POINT('Origin',(0.,-0.564343332349176,0.));
#267=CARTESIAN_POINT('',(-9.32008346180182E-15,-3.28599860210826,76.1042569032216));
#268=CARTESIAN_POINT('Origin',(-8.96110122269843E-15,-0.564343332349176,
73.1729444680498));
#269=CARTESIAN_POINT('Origin',(0.,-3.28599860210826,0.));
#270=CARTESIAN_POINT('Ctrl Pts',(0.,8.73179054401637,84.2679051079508));
#271=CARTESIAN_POINT('Ctrl Pts',(-84.2679051079508,8.73179054401637,84.2679051079508));
#272=CARTESIAN_POINT('Ctrl Pts',(-84.2679051079508,8.73179054401637,0.));
#273=CARTESIAN_POINT('Ctrl Pts',(-84.2679051079508,8.73179054401637,-84.2679051079508));
#274=CARTESIAN_POINT('Ctrl Pts',(0.,8.73179054401637,-84.2679051079508));
#275=CARTESIAN_POINT('Ctrl Pts',(84.2679051079508,8.73179054401637,-84.2679051079508));
#276=CARTESIAN_POINT('Ctrl Pts',(84.2679051079508,8.73179054401637,0.));
#277=CARTESIAN_POINT('Ctrl Pts',(84.2679051079508,8.73179054401637,84.2679051079508));
#278=CARTESIAN_POINT('Ctrl Pts',(0.,8.73179054401637,84.2679051079508));
#279=CARTESIAN_POINT('Ctrl Pts',(0.,2.0991757874874,81.1042658003134));
#280=CARTESIAN_POINT('Ctrl Pts',(-81.1042658003134,2.0991757874874,81.1042658003134));
#281=CARTESIAN_POINT('Ctrl Pts',(-81.1042658003134,2.0991757874874,0.));
#282=CARTESIAN_POINT('Ctrl Pts',(-81.1042658003134,2.0991757874874,-81.1042658003134));
#283=CARTESIAN_POINT('Ctrl Pts',(0.,2.0991757874874,-81.1042658003134));
#284=CARTESIAN_POINT('Ctrl Pts',(81.1042658003134,2.0991757874874,-81.1042658003134));
#285=CARTESIAN_POINT('Ctrl Pts',(81.1042658003134,2.0991757874874,0.));
#286=CARTESIAN_POINT('Ctrl Pts',(81.1042658003134,2.0991757874874,81.1042658003134));
#287=CARTESIAN_POINT('Ctrl Pts',(0.,2.0991757874874,81.1042658003134));
#288=CARTESIAN_POINT('Ctrl Pts',(0.,-3.28599860210826,76.1042569032216));
#289=CARTESIAN_POINT('Ctrl Pts',(-76.1042569032216,-3.28599860210826,76.1042569032216));
#290=CARTESIAN_POINT('Ctrl Pts',(-76.1042569032216,-3.28599860210826,0.));
#291=CARTESIAN_POINT('Ctrl Pts',(-76.1042569032216,-3.28599860210826,-76.1042569032216));
#292=CARTESIAN_POINT('Ctrl Pts',(0.,-3.28599860210826,-76.1042569032216));
#293=CARTESIAN_POINT('Ctrl Pts',(76.1042569032216,-3.28599860210826,-76.1042569032216));
#294=CARTESIAN_POINT('Ctrl Pts',(76.1042569032216,-3.28599860210826,0.));
#295=CARTESIAN_POINT('Ctrl Pts',(76.1042569032216,-3.28599860210826,76.1042569032216));
#296=CARTESIAN_POINT('Ctrl Pts',(0.,-3.28599860210826,76.1042569032216));
#297=CARTESIAN_POINT('',(-1.03198420261305E-14,8.73179054401637,84.2679051079508));
#298=CARTESIAN_POINT('Origin',(-5.00414631633548E-15,29.4356566676508,40.8619556252428));
#299=CARTESIAN_POINT('Origin',(0.,8.73179054401637,0.));
#300=CARTESIAN_POINT('Origin',(0.,5.28766243526186,0.));
#301=CARTESIAN_POINT('',(-1.08690351730292E-14,12.8052034015491,88.7524074745198));
#302=CARTESIAN_POINT('Origin',(-1.12041182720434E-14,5.28766243526186,91.4885686211252));
#303=CARTESIAN_POINT('',(0.,12.8052034015491,-88.7524074745198));
#304=CARTESIAN_POINT('Origin',(0.,12.8052034015491,0.));
#305=CARTESIAN_POINT('Origin',(0.,12.8052034015491,0.));
#306=CARTESIAN_POINT('Origin',(0.,12.8052034015491,0.));
#307=CARTESIAN_POINT('',(0.,18.1648427622903,-103.477895594576));
#308=CARTESIAN_POINT('Origin',(0.,18.1648427622903,0.));
#309=CARTESIAN_POINT('',(-1.08690351730292E-14,12.8052034015491,-88.7524074745198));
#310=CARTESIAN_POINT('Origin',(0.,1.,0.));
#311=CARTESIAN_POINT('',(-8.57252759403147E-15,0.999999999999999,70.));
#312=CARTESIAN_POINT('Origin',(0.,0.999999999999999,0.));
#313=CARTESIAN_POINT('Origin',(0.,-3.,0.));
#314=CARTESIAN_POINT('',(0.,-0.564343332348814,73.1729444680502));
#315=CARTESIAN_POINT('Origin',(0.,-0.564343332348814,0.));
#316=CARTESIAN_POINT('Origin',(-8.57252759403147E-15,-3.,70.));
#317=CARTESIAN_POINT('Ctrl Pts',(0.,10.4538545983936,80.6575733513637));
#318=CARTESIAN_POINT('Ctrl Pts',(-80.6575733513637,10.4538545983936,80.6575733513637));
#319=CARTESIAN_POINT('Ctrl Pts',(-80.6575733513637,10.4538545983936,0.));
#320=CARTESIAN_POINT('Ctrl Pts',(-80.6575733513637,10.4538545983936,-80.6575733513637));
#321=CARTESIAN_POINT('Ctrl Pts',(0.,10.4538545983936,-80.6575733513637));
#322=CARTESIAN_POINT('Ctrl Pts',(80.6575733513637,10.4538545983936,-80.6575733513637));
#323=CARTESIAN_POINT('Ctrl Pts',(80.6575733513637,10.4538545983936,0.));
#324=CARTESIAN_POINT('Ctrl Pts',(80.6575733513637,10.4538545983936,80.6575733513637));
#325=CARTESIAN_POINT('Ctrl Pts',(0.,10.4538545983936,80.6575733513637));
#326=CARTESIAN_POINT('Ctrl Pts',(0.,4.37291397801633,77.757072797627));
#327=CARTESIAN_POINT('Ctrl Pts',(-77.7570727976269,4.37291397801633,77.7570727976269));
#328=CARTESIAN_POINT('Ctrl Pts',(-77.757072797627,4.37291397801633,0.));
#329=CARTESIAN_POINT('Ctrl Pts',(-77.7570727976269,4.37291397801633,-77.7570727976269));
#330=CARTESIAN_POINT('Ctrl Pts',(0.,4.37291397801633,-77.757072797627));
#331=CARTESIAN_POINT('Ctrl Pts',(77.7570727976269,4.37291397801633,-77.7570727976269));
#332=CARTESIAN_POINT('Ctrl Pts',(77.757072797627,4.37291397801633,0.));
#333=CARTESIAN_POINT('Ctrl Pts',(77.7570727976269,4.37291397801633,77.7570727976269));
#334=CARTESIAN_POINT('Ctrl Pts',(0.,4.37291397801633,77.757072797627));
#335=CARTESIAN_POINT('Ctrl Pts',(0.,-0.564343332348791,73.1729444680502));
#336=CARTESIAN_POINT('Ctrl Pts',(-73.1729444680502,-0.564343332348791,73.1729444680502));
#337=CARTESIAN_POINT('Ctrl Pts',(-73.1729444680502,-0.564343332348791,0.));
#338=CARTESIAN_POINT('Ctrl Pts',(-73.1729444680502,-0.564343332348791,-73.1729444680502));
#339=CARTESIAN_POINT('Ctrl Pts',(0.,-0.564343332348791,-73.1729444680502));
#340=CARTESIAN_POINT('Ctrl Pts',(73.1729444680502,-0.564343332348791,-73.1729444680502));
#341=CARTESIAN_POINT('Ctrl Pts',(73.1729444680502,-0.564343332348791,0.));
#342=CARTESIAN_POINT('Ctrl Pts',(73.1729444680502,-0.564343332348791,73.1729444680502));
#343=CARTESIAN_POINT('Ctrl Pts',(0.,-0.564343332348791,73.1729444680502));
#344=CARTESIAN_POINT('',(-9.87770390317404E-15,10.4538545983936,80.6575733513637));
#345=CARTESIAN_POINT('Origin',(0.,10.4538545983936,0.));
#346=CARTESIAN_POINT('Origin',(-5.00414631633548E-15,29.4356566676508,40.8619556252428));
#347=CARTESIAN_POINT('Origin',(0.,5.28766243526186,0.));
#348=CARTESIAN_POINT('',(0.,16.5639738846928,-87.3843269012171));
#349=CARTESIAN_POINT('',(-1.07014936235221E-14,16.5639738846928,87.3843269012171));
#350=CARTESIAN_POINT('Origin',(0.,16.5639738846928,0.));
#351=CARTESIAN_POINT('Origin',(0.,16.5639738846928,0.));
#352=CARTESIAN_POINT('Origin',(-1.12041182720434E-14,5.28766243526186,91.4885686211252));
#353=CARTESIAN_POINT('Origin',(0.,16.5639738846928,0.));
#354=CARTESIAN_POINT('',(-1.25048454585399E-14,21.9236121927567,-102.109812129067));
#355=CARTESIAN_POINT('',(-1.07014936235221E-14,16.5639738846928,-87.3843269012171));
#356=CARTESIAN_POINT('Origin',(0.,21.9236121927567,0.));
#357=CARTESIAN_POINT('Origin',(0.,20.044228003861,0.));
#358=CARTESIAN_POINT('Origin',(-1.25886165874867E-14,20.044228003861,-102.793855307925));
#359=UNCERTAINTY_MEASURE_WITH_UNIT(LENGTH_MEASURE(0.01),#363,
'DISTANCE_ACCURACY_VALUE',
'Maximum model space distance between geometric entities at asserted c
onnectivities');
#360=UNCERTAINTY_MEASURE_WITH_UNIT(LENGTH_MEASURE(0.01),#363,
'DISTANCE_ACCURACY_VALUE',
'Maximum model space distance between geometric entities at asserted c
onnectivities');
#361=(
GEOMETRIC_REPRESENTATION_CONTEXT(3)
GLOBAL_UNCERTAINTY_ASSIGNED_CONTEXT((#359))
GLOBAL_UNIT_ASSIGNED_CONTEXT((#363,#365,#366))
REPRESENTATION_CONTEXT('','3D')
);
#362=(
GEOMETRIC_REPRESENTATION_CONTEXT(3)
GLOBAL_UNCERTAINTY_ASSIGNED_CONTEXT((#360))
GLOBAL_UNIT_ASSIGNED_CONTEXT((#363,#365,#366))
REPRESENTATION_CONTEXT('','3D')
);
#363=(
LENGTH_UNIT()
NAMED_UNIT(*)
SI_UNIT(.MILLI.,.METRE.)
);
#364=(
LENGTH_UNIT()
NAMED_UNIT(*)
SI_UNIT(.CENTI.,.METRE.)
);
#365=(
NAMED_UNIT(*)
PLANE_ANGLE_UNIT()
SI_UNIT($,.RADIAN.)
);
#366=(
NAMED_UNIT(*)
SI_UNIT($,.STERADIAN.)
SOLID_ANGLE_UNIT()
);
#367=SHAPE_DEFINITION_REPRESENTATION(#368,#369);
#368=PRODUCT_DEFINITION_SHAPE('',$,#371);
#369=SHAPE_REPRESENTATION('',(#173),#361);
#370=PRODUCT_DEFINITION_CONTEXT('part definition',#375,'design');
#371=PRODUCT_DEFINITION('Plate','\X2\0422043004400435043B043A0430\X0\',
#372,#370);
#372=PRODUCT_DEFINITION_FORMATION('',$,#377);
#373=PRODUCT_RELATED_PRODUCT_CATEGORY('\X2\0422043004400435043B043A0430\X0\',
'\X2\0422043004400435043B043A0430\X0\',(#377));
#374=APPLICATION_PROTOCOL_DEFINITION('international standard',
'automotive_design',2009,#375);
#375=APPLICATION_CONTEXT(
'Core Data for Automotive Mechanical Design Process');
#376=PRODUCT_CONTEXT('part definition',#375,'mechanical');
#377=PRODUCT('Plate','\X2\0422043004400435043B043A0430\X0\',$,(#376));
#378=PRESENTATION_STYLE_ASSIGNMENT((#379));
#379=SURFACE_STYLE_USAGE(.BOTH.,#382);
#380=SURFACE_STYLE_RENDERING_WITH_PROPERTIES($,#386,(#381));
#381=SURFACE_STYLE_TRANSPARENT(0.);
#382=SURFACE_SIDE_STYLE('',(#383,#380));
#383=SURFACE_STYLE_FILL_AREA(#384);
#384=FILL_AREA_STYLE('',(#385));
#385=FILL_AREA_STYLE_COLOUR('',#386);
#386=COLOUR_RGB('',0.749019607843137,0.749019607843137,0.749019607843137);
ENDSEC;
END-ISO-10303-21;
